%TF.GenerationSoftware,KiCad,Pcbnew,10.0.3*%
%TF.CreationDate,2026-08-19T14:10:02+02:00*%
%TF.ProjectId,DiceCard,44696365-4361-4726-942e-6b696361645f,rev?*%
%TF.SameCoordinates,Original*%
%TF.FileFunction,Copper,L1,Top*%
%TF.FilePolarity,Positive*%
%FSLAX46Y46*%
G04 Gerber Fmt 4.6, Leading zero omitted, Abs format (unit mm)*
G04 Created by KiCad (PCBNEW 10.0.3) date 2026-08-19 14:10:02*
%MOMM*%
%LPD*%
G01*
G04 APERTURE LIST*
G04 Aperture macros list*
%AMRoundRect*
0 Rectangle with rounded corners*
0 $1 Rounding radius*
0 $2 $3 $4 $5 $6 $7 $8 $9 X,Y pos of 4 corners*
0 Add a 4 corners polygon primitive as box body*
4,1,4,$2,$3,$4,$5,$6,$7,$8,$9,$2,$3,0*
0 Add four circle primitives for the rounded corners*
1,1,$1+$1,$2,$3*
1,1,$1+$1,$4,$5*
1,1,$1+$1,$6,$7*
1,1,$1+$1,$8,$9*
0 Add four rect primitives between the rounded corners*
20,1,$1+$1,$2,$3,$4,$5,0*
20,1,$1+$1,$4,$5,$6,$7,0*
20,1,$1+$1,$6,$7,$8,$9,0*
20,1,$1+$1,$8,$9,$2,$3,0*%
G04 Aperture macros list end*
%TA.AperFunction,NonConductor*%
%ADD10C,0.200000*%
%TD*%
%ADD11C,0.125000*%
%TA.AperFunction,NonConductor*%
%ADD12C,0.125000*%
%TD*%
%ADD13C,0.500000*%
%TA.AperFunction,NonConductor*%
%ADD14C,0.500000*%
%TD*%
%TA.AperFunction,SMDPad,CuDef*%
%ADD15R,1.000000X2.510000*%
%TD*%
%TA.AperFunction,SMDPad,CuDef*%
%ADD16RoundRect,0.075000X-0.075000X0.125000X-0.075000X-0.125000X0.075000X-0.125000X0.075000X0.125000X0*%
%TD*%
%TA.AperFunction,SMDPad,CuDef*%
%ADD17RoundRect,0.237500X-0.287500X-0.237500X0.287500X-0.237500X0.287500X0.237500X-0.287500X0.237500X0*%
%TD*%
%TA.AperFunction,SMDPad,CuDef*%
%ADD18RoundRect,0.150000X-0.825000X-0.150000X0.825000X-0.150000X0.825000X0.150000X-0.825000X0.150000X0*%
%TD*%
%TA.AperFunction,ComponentPad*%
%ADD19C,2.000000*%
%TD*%
%TA.AperFunction,ViaPad*%
%ADD20C,0.600000*%
%TD*%
%TA.AperFunction,Conductor*%
%ADD21C,0.200000*%
%TD*%
G04 APERTURE END LIST*
D10*
X41605200Y-99872800D02*
X39550000Y-99872800D01*
X37800000Y-99450000D01*
X36355333Y-98417067D01*
X35350000Y-97000000D01*
X35150000Y-96350000D01*
X34890866Y-95300000D01*
X34900000Y-91600000D01*
X34890866Y-81838800D01*
X37134800Y-79552800D01*
X51816000Y-79552800D01*
X53086000Y-80459943D01*
X53086000Y-87641935D01*
X51900000Y-88500000D01*
X42976800Y-88493600D01*
X40538400Y-90932000D01*
X40538400Y-98755200D01*
X41605200Y-99872800D01*
%TA.AperFunction,NonConductor*%
G36*
X53086000Y-80459943D02*
G01*
X53086000Y-87641935D01*
X51900000Y-88500000D01*
X42976800Y-88493600D01*
X40538400Y-90932000D01*
X40538400Y-98755200D01*
X41605200Y-99872800D01*
X39550000Y-99872800D01*
X37800000Y-99450000D01*
X36355333Y-98417067D01*
X35350000Y-97000000D01*
X35150000Y-96350000D01*
X34890866Y-95300000D01*
X34900000Y-91600000D01*
X34890866Y-81838800D01*
X37134800Y-79552800D01*
X51816000Y-79552800D01*
X53086000Y-80459943D01*
G37*
%TD.AperFunction*%
D11*
D12*
X37132883Y-78397528D02*
X37132883Y-76897528D01*
X37347169Y-78397528D02*
X37347169Y-77611814D01*
X37347169Y-77611814D02*
X37323359Y-77468957D01*
X37323359Y-77468957D02*
X37275740Y-77397528D01*
X37275740Y-77397528D02*
X37204312Y-77397528D01*
X37204312Y-77397528D02*
X37156693Y-77468957D01*
X37156693Y-77468957D02*
X37132883Y-77540385D01*
X37513836Y-77397528D02*
X37704312Y-77397528D01*
X37585264Y-76897528D02*
X37585264Y-78183242D01*
X37585264Y-78183242D02*
X37609074Y-78326100D01*
X37609074Y-78326100D02*
X37656693Y-78397528D01*
X37656693Y-78397528D02*
X37704312Y-78397528D01*
X37799550Y-77397528D02*
X37990026Y-77397528D01*
X37870978Y-76897528D02*
X37870978Y-78183242D01*
X37870978Y-78183242D02*
X37894788Y-78326100D01*
X37894788Y-78326100D02*
X37942407Y-78397528D01*
X37942407Y-78397528D02*
X37990026Y-78397528D01*
X38156692Y-77397528D02*
X38156692Y-78897528D01*
X38156692Y-77468957D02*
X38204311Y-77397528D01*
X38204311Y-77397528D02*
X38299549Y-77397528D01*
X38299549Y-77397528D02*
X38347168Y-77468957D01*
X38347168Y-77468957D02*
X38370978Y-77540385D01*
X38370978Y-77540385D02*
X38394787Y-77683242D01*
X38394787Y-77683242D02*
X38394787Y-78111814D01*
X38394787Y-78111814D02*
X38370978Y-78254671D01*
X38370978Y-78254671D02*
X38347168Y-78326100D01*
X38347168Y-78326100D02*
X38299549Y-78397528D01*
X38299549Y-78397528D02*
X38204311Y-78397528D01*
X38204311Y-78397528D02*
X38156692Y-78326100D01*
X38585264Y-78326100D02*
X38632883Y-78397528D01*
X38632883Y-78397528D02*
X38728121Y-78397528D01*
X38728121Y-78397528D02*
X38775740Y-78326100D01*
X38775740Y-78326100D02*
X38799549Y-78183242D01*
X38799549Y-78183242D02*
X38799549Y-78111814D01*
X38799549Y-78111814D02*
X38775740Y-77968957D01*
X38775740Y-77968957D02*
X38728121Y-77897528D01*
X38728121Y-77897528D02*
X38656692Y-77897528D01*
X38656692Y-77897528D02*
X38609073Y-77826100D01*
X38609073Y-77826100D02*
X38585264Y-77683242D01*
X38585264Y-77683242D02*
X38585264Y-77611814D01*
X38585264Y-77611814D02*
X38609073Y-77468957D01*
X38609073Y-77468957D02*
X38656692Y-77397528D01*
X38656692Y-77397528D02*
X38728121Y-77397528D01*
X38728121Y-77397528D02*
X38775740Y-77468957D01*
X39013835Y-78254671D02*
X39037645Y-78326100D01*
X39037645Y-78326100D02*
X39013835Y-78397528D01*
X39013835Y-78397528D02*
X38990026Y-78326100D01*
X38990026Y-78326100D02*
X39013835Y-78254671D01*
X39013835Y-78254671D02*
X39013835Y-78397528D01*
X39013835Y-77468957D02*
X39037645Y-77540385D01*
X39037645Y-77540385D02*
X39013835Y-77611814D01*
X39013835Y-77611814D02*
X38990026Y-77540385D01*
X38990026Y-77540385D02*
X39013835Y-77468957D01*
X39013835Y-77468957D02*
X39013835Y-77611814D01*
X39609073Y-76826100D02*
X39180502Y-78754671D01*
X40132883Y-76826100D02*
X39704312Y-78754671D01*
X40513836Y-77397528D02*
X40513836Y-78611814D01*
X40513836Y-78611814D02*
X40490026Y-78754671D01*
X40490026Y-78754671D02*
X40466217Y-78826100D01*
X40466217Y-78826100D02*
X40418598Y-78897528D01*
X40418598Y-78897528D02*
X40347169Y-78897528D01*
X40347169Y-78897528D02*
X40299550Y-78826100D01*
X40513836Y-78326100D02*
X40466217Y-78397528D01*
X40466217Y-78397528D02*
X40370979Y-78397528D01*
X40370979Y-78397528D02*
X40323360Y-78326100D01*
X40323360Y-78326100D02*
X40299550Y-78254671D01*
X40299550Y-78254671D02*
X40275741Y-78111814D01*
X40275741Y-78111814D02*
X40275741Y-77683242D01*
X40275741Y-77683242D02*
X40299550Y-77540385D01*
X40299550Y-77540385D02*
X40323360Y-77468957D01*
X40323360Y-77468957D02*
X40370979Y-77397528D01*
X40370979Y-77397528D02*
X40466217Y-77397528D01*
X40466217Y-77397528D02*
X40513836Y-77468957D01*
X40751931Y-78397528D02*
X40751931Y-77397528D01*
X40751931Y-76897528D02*
X40728122Y-76968957D01*
X40728122Y-76968957D02*
X40751931Y-77040385D01*
X40751931Y-77040385D02*
X40775741Y-76968957D01*
X40775741Y-76968957D02*
X40751931Y-76897528D01*
X40751931Y-76897528D02*
X40751931Y-77040385D01*
X40918598Y-77397528D02*
X41109074Y-77397528D01*
X40990026Y-76897528D02*
X40990026Y-78183242D01*
X40990026Y-78183242D02*
X41013836Y-78326100D01*
X41013836Y-78326100D02*
X41061455Y-78397528D01*
X41061455Y-78397528D02*
X41109074Y-78397528D01*
X41275740Y-78397528D02*
X41275740Y-76897528D01*
X41490026Y-78397528D02*
X41490026Y-77611814D01*
X41490026Y-77611814D02*
X41466216Y-77468957D01*
X41466216Y-77468957D02*
X41418597Y-77397528D01*
X41418597Y-77397528D02*
X41347169Y-77397528D01*
X41347169Y-77397528D02*
X41299550Y-77468957D01*
X41299550Y-77468957D02*
X41275740Y-77540385D01*
X41942407Y-77397528D02*
X41942407Y-78397528D01*
X41728121Y-77397528D02*
X41728121Y-78183242D01*
X41728121Y-78183242D02*
X41751931Y-78326100D01*
X41751931Y-78326100D02*
X41799550Y-78397528D01*
X41799550Y-78397528D02*
X41870978Y-78397528D01*
X41870978Y-78397528D02*
X41918597Y-78326100D01*
X41918597Y-78326100D02*
X41942407Y-78254671D01*
X42180502Y-78397528D02*
X42180502Y-76897528D01*
X42180502Y-77468957D02*
X42228121Y-77397528D01*
X42228121Y-77397528D02*
X42323359Y-77397528D01*
X42323359Y-77397528D02*
X42370978Y-77468957D01*
X42370978Y-77468957D02*
X42394788Y-77540385D01*
X42394788Y-77540385D02*
X42418597Y-77683242D01*
X42418597Y-77683242D02*
X42418597Y-78111814D01*
X42418597Y-78111814D02*
X42394788Y-78254671D01*
X42394788Y-78254671D02*
X42370978Y-78326100D01*
X42370978Y-78326100D02*
X42323359Y-78397528D01*
X42323359Y-78397528D02*
X42228121Y-78397528D01*
X42228121Y-78397528D02*
X42180502Y-78326100D01*
X42632883Y-78254671D02*
X42656693Y-78326100D01*
X42656693Y-78326100D02*
X42632883Y-78397528D01*
X42632883Y-78397528D02*
X42609074Y-78326100D01*
X42609074Y-78326100D02*
X42632883Y-78254671D01*
X42632883Y-78254671D02*
X42632883Y-78397528D01*
X43085264Y-78326100D02*
X43037645Y-78397528D01*
X43037645Y-78397528D02*
X42942407Y-78397528D01*
X42942407Y-78397528D02*
X42894788Y-78326100D01*
X42894788Y-78326100D02*
X42870978Y-78254671D01*
X42870978Y-78254671D02*
X42847169Y-78111814D01*
X42847169Y-78111814D02*
X42847169Y-77683242D01*
X42847169Y-77683242D02*
X42870978Y-77540385D01*
X42870978Y-77540385D02*
X42894788Y-77468957D01*
X42894788Y-77468957D02*
X42942407Y-77397528D01*
X42942407Y-77397528D02*
X43037645Y-77397528D01*
X43037645Y-77397528D02*
X43085264Y-77468957D01*
X43370978Y-78397528D02*
X43323359Y-78326100D01*
X43323359Y-78326100D02*
X43299549Y-78254671D01*
X43299549Y-78254671D02*
X43275740Y-78111814D01*
X43275740Y-78111814D02*
X43275740Y-77683242D01*
X43275740Y-77683242D02*
X43299549Y-77540385D01*
X43299549Y-77540385D02*
X43323359Y-77468957D01*
X43323359Y-77468957D02*
X43370978Y-77397528D01*
X43370978Y-77397528D02*
X43442406Y-77397528D01*
X43442406Y-77397528D02*
X43490025Y-77468957D01*
X43490025Y-77468957D02*
X43513835Y-77540385D01*
X43513835Y-77540385D02*
X43537644Y-77683242D01*
X43537644Y-77683242D02*
X43537644Y-78111814D01*
X43537644Y-78111814D02*
X43513835Y-78254671D01*
X43513835Y-78254671D02*
X43490025Y-78326100D01*
X43490025Y-78326100D02*
X43442406Y-78397528D01*
X43442406Y-78397528D02*
X43370978Y-78397528D01*
X43751930Y-78397528D02*
X43751930Y-77397528D01*
X43751930Y-77540385D02*
X43775740Y-77468957D01*
X43775740Y-77468957D02*
X43823359Y-77397528D01*
X43823359Y-77397528D02*
X43894787Y-77397528D01*
X43894787Y-77397528D02*
X43942406Y-77468957D01*
X43942406Y-77468957D02*
X43966216Y-77611814D01*
X43966216Y-77611814D02*
X43966216Y-78397528D01*
X43966216Y-77611814D02*
X43990025Y-77468957D01*
X43990025Y-77468957D02*
X44037644Y-77397528D01*
X44037644Y-77397528D02*
X44109073Y-77397528D01*
X44109073Y-77397528D02*
X44156692Y-77468957D01*
X44156692Y-77468957D02*
X44180502Y-77611814D01*
X44180502Y-77611814D02*
X44180502Y-78397528D01*
X44775740Y-76826100D02*
X44347169Y-78754671D01*
X44942407Y-78397528D02*
X44942407Y-76897528D01*
X44942407Y-76897528D02*
X45132883Y-76897528D01*
X45132883Y-76897528D02*
X45180502Y-76968957D01*
X45180502Y-76968957D02*
X45204312Y-77040385D01*
X45204312Y-77040385D02*
X45228121Y-77183242D01*
X45228121Y-77183242D02*
X45228121Y-77397528D01*
X45228121Y-77397528D02*
X45204312Y-77540385D01*
X45204312Y-77540385D02*
X45180502Y-77611814D01*
X45180502Y-77611814D02*
X45132883Y-77683242D01*
X45132883Y-77683242D02*
X44942407Y-77683242D01*
X45513836Y-78397528D02*
X45466217Y-78326100D01*
X45466217Y-78326100D02*
X45442407Y-78183242D01*
X45442407Y-78183242D02*
X45442407Y-76897528D01*
X45918598Y-77397528D02*
X45918598Y-78397528D01*
X45704312Y-77397528D02*
X45704312Y-78183242D01*
X45704312Y-78183242D02*
X45728122Y-78326100D01*
X45728122Y-78326100D02*
X45775741Y-78397528D01*
X45775741Y-78397528D02*
X45847169Y-78397528D01*
X45847169Y-78397528D02*
X45894788Y-78326100D01*
X45894788Y-78326100D02*
X45918598Y-78254671D01*
X46156693Y-78397528D02*
X46156693Y-77397528D01*
X46156693Y-77540385D02*
X46180503Y-77468957D01*
X46180503Y-77468957D02*
X46228122Y-77397528D01*
X46228122Y-77397528D02*
X46299550Y-77397528D01*
X46299550Y-77397528D02*
X46347169Y-77468957D01*
X46347169Y-77468957D02*
X46370979Y-77611814D01*
X46370979Y-77611814D02*
X46370979Y-78397528D01*
X46370979Y-77611814D02*
X46394788Y-77468957D01*
X46394788Y-77468957D02*
X46442407Y-77397528D01*
X46442407Y-77397528D02*
X46513836Y-77397528D01*
X46513836Y-77397528D02*
X46561455Y-77468957D01*
X46561455Y-77468957D02*
X46585265Y-77611814D01*
X46585265Y-77611814D02*
X46585265Y-78397528D01*
X46775741Y-76897528D02*
X47085265Y-76897528D01*
X47085265Y-76897528D02*
X46918598Y-77468957D01*
X46918598Y-77468957D02*
X46990027Y-77468957D01*
X46990027Y-77468957D02*
X47037646Y-77540385D01*
X47037646Y-77540385D02*
X47061455Y-77611814D01*
X47061455Y-77611814D02*
X47085265Y-77754671D01*
X47085265Y-77754671D02*
X47085265Y-78111814D01*
X47085265Y-78111814D02*
X47061455Y-78254671D01*
X47061455Y-78254671D02*
X47037646Y-78326100D01*
X47037646Y-78326100D02*
X46990027Y-78397528D01*
X46990027Y-78397528D02*
X46847170Y-78397528D01*
X46847170Y-78397528D02*
X46799551Y-78326100D01*
X46799551Y-78326100D02*
X46775741Y-78254671D01*
X47513836Y-77397528D02*
X47513836Y-78397528D01*
X47394788Y-76826100D02*
X47275741Y-77897528D01*
X47275741Y-77897528D02*
X47585264Y-77897528D01*
X47847169Y-77540385D02*
X47799550Y-77468957D01*
X47799550Y-77468957D02*
X47775740Y-77397528D01*
X47775740Y-77397528D02*
X47751931Y-77254671D01*
X47751931Y-77254671D02*
X47751931Y-77183242D01*
X47751931Y-77183242D02*
X47775740Y-77040385D01*
X47775740Y-77040385D02*
X47799550Y-76968957D01*
X47799550Y-76968957D02*
X47847169Y-76897528D01*
X47847169Y-76897528D02*
X47942407Y-76897528D01*
X47942407Y-76897528D02*
X47990026Y-76968957D01*
X47990026Y-76968957D02*
X48013835Y-77040385D01*
X48013835Y-77040385D02*
X48037645Y-77183242D01*
X48037645Y-77183242D02*
X48037645Y-77254671D01*
X48037645Y-77254671D02*
X48013835Y-77397528D01*
X48013835Y-77397528D02*
X47990026Y-77468957D01*
X47990026Y-77468957D02*
X47942407Y-77540385D01*
X47942407Y-77540385D02*
X47847169Y-77540385D01*
X47847169Y-77540385D02*
X47799550Y-77611814D01*
X47799550Y-77611814D02*
X47775740Y-77683242D01*
X47775740Y-77683242D02*
X47751931Y-77826100D01*
X47751931Y-77826100D02*
X47751931Y-78111814D01*
X47751931Y-78111814D02*
X47775740Y-78254671D01*
X47775740Y-78254671D02*
X47799550Y-78326100D01*
X47799550Y-78326100D02*
X47847169Y-78397528D01*
X47847169Y-78397528D02*
X47942407Y-78397528D01*
X47942407Y-78397528D02*
X47990026Y-78326100D01*
X47990026Y-78326100D02*
X48013835Y-78254671D01*
X48013835Y-78254671D02*
X48037645Y-78111814D01*
X48037645Y-78111814D02*
X48037645Y-77826100D01*
X48037645Y-77826100D02*
X48013835Y-77683242D01*
X48013835Y-77683242D02*
X47990026Y-77611814D01*
X47990026Y-77611814D02*
X47942407Y-77540385D01*
X48275740Y-78397528D02*
X48370978Y-78397528D01*
X48370978Y-78397528D02*
X48418597Y-78326100D01*
X48418597Y-78326100D02*
X48442406Y-78254671D01*
X48442406Y-78254671D02*
X48490025Y-78040385D01*
X48490025Y-78040385D02*
X48513835Y-77754671D01*
X48513835Y-77754671D02*
X48513835Y-77183242D01*
X48513835Y-77183242D02*
X48490025Y-77040385D01*
X48490025Y-77040385D02*
X48466216Y-76968957D01*
X48466216Y-76968957D02*
X48418597Y-76897528D01*
X48418597Y-76897528D02*
X48323359Y-76897528D01*
X48323359Y-76897528D02*
X48275740Y-76968957D01*
X48275740Y-76968957D02*
X48251930Y-77040385D01*
X48251930Y-77040385D02*
X48228121Y-77183242D01*
X48228121Y-77183242D02*
X48228121Y-77540385D01*
X48228121Y-77540385D02*
X48251930Y-77683242D01*
X48251930Y-77683242D02*
X48275740Y-77754671D01*
X48275740Y-77754671D02*
X48323359Y-77826100D01*
X48323359Y-77826100D02*
X48418597Y-77826100D01*
X48418597Y-77826100D02*
X48466216Y-77754671D01*
X48466216Y-77754671D02*
X48490025Y-77683242D01*
X48490025Y-77683242D02*
X48513835Y-77540385D01*
D13*
D14*
X52656032Y-67831257D02*
X52656032Y-64831257D01*
X52656032Y-64831257D02*
X53370318Y-64831257D01*
X53370318Y-64831257D02*
X53798889Y-64974114D01*
X53798889Y-64974114D02*
X54084604Y-65259828D01*
X54084604Y-65259828D02*
X54227461Y-65545542D01*
X54227461Y-65545542D02*
X54370318Y-66116971D01*
X54370318Y-66116971D02*
X54370318Y-66545542D01*
X54370318Y-66545542D02*
X54227461Y-67116971D01*
X54227461Y-67116971D02*
X54084604Y-67402685D01*
X54084604Y-67402685D02*
X53798889Y-67688400D01*
X53798889Y-67688400D02*
X53370318Y-67831257D01*
X53370318Y-67831257D02*
X52656032Y-67831257D01*
X55656032Y-67831257D02*
X55656032Y-65831257D01*
X55656032Y-64831257D02*
X55513175Y-64974114D01*
X55513175Y-64974114D02*
X55656032Y-65116971D01*
X55656032Y-65116971D02*
X55798889Y-64974114D01*
X55798889Y-64974114D02*
X55656032Y-64831257D01*
X55656032Y-64831257D02*
X55656032Y-65116971D01*
X58370318Y-67688400D02*
X58084603Y-67831257D01*
X58084603Y-67831257D02*
X57513175Y-67831257D01*
X57513175Y-67831257D02*
X57227460Y-67688400D01*
X57227460Y-67688400D02*
X57084603Y-67545542D01*
X57084603Y-67545542D02*
X56941746Y-67259828D01*
X56941746Y-67259828D02*
X56941746Y-66402685D01*
X56941746Y-66402685D02*
X57084603Y-66116971D01*
X57084603Y-66116971D02*
X57227460Y-65974114D01*
X57227460Y-65974114D02*
X57513175Y-65831257D01*
X57513175Y-65831257D02*
X58084603Y-65831257D01*
X58084603Y-65831257D02*
X58370318Y-65974114D01*
X60798889Y-67688400D02*
X60513175Y-67831257D01*
X60513175Y-67831257D02*
X59941747Y-67831257D01*
X59941747Y-67831257D02*
X59656032Y-67688400D01*
X59656032Y-67688400D02*
X59513175Y-67402685D01*
X59513175Y-67402685D02*
X59513175Y-66259828D01*
X59513175Y-66259828D02*
X59656032Y-65974114D01*
X59656032Y-65974114D02*
X59941747Y-65831257D01*
X59941747Y-65831257D02*
X60513175Y-65831257D01*
X60513175Y-65831257D02*
X60798889Y-65974114D01*
X60798889Y-65974114D02*
X60941747Y-66259828D01*
X60941747Y-66259828D02*
X60941747Y-66545542D01*
X60941747Y-66545542D02*
X59513175Y-66831257D01*
X66227461Y-67545542D02*
X66084604Y-67688400D01*
X66084604Y-67688400D02*
X65656032Y-67831257D01*
X65656032Y-67831257D02*
X65370318Y-67831257D01*
X65370318Y-67831257D02*
X64941747Y-67688400D01*
X64941747Y-67688400D02*
X64656032Y-67402685D01*
X64656032Y-67402685D02*
X64513175Y-67116971D01*
X64513175Y-67116971D02*
X64370318Y-66545542D01*
X64370318Y-66545542D02*
X64370318Y-66116971D01*
X64370318Y-66116971D02*
X64513175Y-65545542D01*
X64513175Y-65545542D02*
X64656032Y-65259828D01*
X64656032Y-65259828D02*
X64941747Y-64974114D01*
X64941747Y-64974114D02*
X65370318Y-64831257D01*
X65370318Y-64831257D02*
X65656032Y-64831257D01*
X65656032Y-64831257D02*
X66084604Y-64974114D01*
X66084604Y-64974114D02*
X66227461Y-65116971D01*
X68798890Y-67831257D02*
X68798890Y-66259828D01*
X68798890Y-66259828D02*
X68656032Y-65974114D01*
X68656032Y-65974114D02*
X68370318Y-65831257D01*
X68370318Y-65831257D02*
X67798890Y-65831257D01*
X67798890Y-65831257D02*
X67513175Y-65974114D01*
X68798890Y-67688400D02*
X68513175Y-67831257D01*
X68513175Y-67831257D02*
X67798890Y-67831257D01*
X67798890Y-67831257D02*
X67513175Y-67688400D01*
X67513175Y-67688400D02*
X67370318Y-67402685D01*
X67370318Y-67402685D02*
X67370318Y-67116971D01*
X67370318Y-67116971D02*
X67513175Y-66831257D01*
X67513175Y-66831257D02*
X67798890Y-66688400D01*
X67798890Y-66688400D02*
X68513175Y-66688400D01*
X68513175Y-66688400D02*
X68798890Y-66545542D01*
X70227461Y-67831257D02*
X70227461Y-65831257D01*
X70227461Y-66402685D02*
X70370318Y-66116971D01*
X70370318Y-66116971D02*
X70513176Y-65974114D01*
X70513176Y-65974114D02*
X70798890Y-65831257D01*
X70798890Y-65831257D02*
X71084604Y-65831257D01*
X73370319Y-67831257D02*
X73370319Y-64831257D01*
X73370319Y-67688400D02*
X73084604Y-67831257D01*
X73084604Y-67831257D02*
X72513176Y-67831257D01*
X72513176Y-67831257D02*
X72227461Y-67688400D01*
X72227461Y-67688400D02*
X72084604Y-67545542D01*
X72084604Y-67545542D02*
X71941747Y-67259828D01*
X71941747Y-67259828D02*
X71941747Y-66402685D01*
X71941747Y-66402685D02*
X72084604Y-66116971D01*
X72084604Y-66116971D02*
X72227461Y-65974114D01*
X72227461Y-65974114D02*
X72513176Y-65831257D01*
X72513176Y-65831257D02*
X73084604Y-65831257D01*
X73084604Y-65831257D02*
X73370319Y-65974114D01*
D15*
%TO.P,J1,1,Pin_1_1*%
%TO.N,Net-(BT1--)*%
X89140000Y-66510000D03*
%TO.P,J1,2,Pin_2_2*%
%TO.N,Net-(J1-Pin_2)*%
X86600000Y-63200000D03*
%TO.P,J1,3,Pin_3_3*%
%TO.N,Net-(BT1-+)*%
X84060000Y-66510000D03*
%TD*%
D16*
%TO.P,R6,1*%
%TO.N,Net-(U1-PA7)*%
X67113000Y-92201600D03*
%TO.P,R6,2*%
%TO.N,Net-(D6-A)*%
X67113000Y-92701600D03*
%TD*%
%TO.P,R3,1*%
%TO.N,Net-(U1-PA4)*%
X54963000Y-92201600D03*
%TO.P,R3,2*%
%TO.N,Net-(D3-A)*%
X54963000Y-92701600D03*
%TD*%
%TO.P,R2,1*%
%TO.N,Net-(U1-PA3)*%
X50913000Y-92201600D03*
%TO.P,R2,2*%
%TO.N,Net-(D2-A)*%
X50913000Y-92701600D03*
%TD*%
D17*
%TO.P,10,1,K_1*%
%TO.N,Net-(BT1--)*%
X82400000Y-96400000D03*
%TO.P,10,2,A_2*%
%TO.N,Net-(D10-A)*%
X84150000Y-96400000D03*
%TD*%
D16*
%TO.P,R9,1*%
%TO.N,Net-(U1-PB1)*%
X79263000Y-92201600D03*
%TO.P,R9,2*%
%TO.N,Net-(D9-A)*%
X79263000Y-92701600D03*
%TD*%
D17*
%TO.P,2,1,K_1*%
%TO.N,Net-(BT1--)*%
X50001200Y-96316800D03*
%TO.P,2,2,A_2*%
%TO.N,Net-(D2-A)*%
X51751200Y-96316800D03*
%TD*%
D16*
%TO.P,R5,1*%
%TO.N,Net-(U1-PA6)*%
X63063000Y-92201600D03*
%TO.P,R5,2*%
%TO.N,Net-(D5-A)*%
X63063000Y-92701600D03*
%TD*%
D17*
%TO.P,7,1,K_1*%
%TO.N,Net-(BT1--)*%
X70400000Y-96400000D03*
%TO.P,7,2,A_2*%
%TO.N,Net-(D7-A)*%
X72150000Y-96400000D03*
%TD*%
D16*
%TO.P,R4,1*%
%TO.N,Net-(U1-PA5)*%
X59013000Y-92201600D03*
%TO.P,R4,2*%
%TO.N,Net-(D4-A)*%
X59013000Y-92701600D03*
%TD*%
D17*
%TO.P,8,1,K_1*%
%TO.N,Net-(BT1--)*%
X74400000Y-96400000D03*
%TO.P,8,2,A_2*%
%TO.N,Net-(D8-A)*%
X76150000Y-96400000D03*
%TD*%
D18*
%TO.P,U1,1,VCC_1*%
%TO.N,Net-(BT1-+)*%
X84000000Y-70130000D03*
%TO.P,U1,2,PA4_2*%
%TO.N,Net-(U1-PA4)*%
X84000000Y-71400000D03*
%TO.P,U1,3,PA5_3*%
%TO.N,Net-(U1-PA5)*%
X84000000Y-72670000D03*
%TO.P,U1,4,PA6_4*%
%TO.N,Net-(U1-PA6)*%
X84000000Y-73940000D03*
%TO.P,U1,5,PA7_5*%
%TO.N,Net-(U1-PA7)*%
X84000000Y-75210000D03*
%TO.P,U1,6,PB3_6*%
%TO.N,Net-(U1-PB3)*%
X84000000Y-76480000D03*
%TO.P,U1,7,PB2_7*%
%TO.N,Net-(U1-PB2)*%
X84000000Y-77750000D03*
%TO.P,U1,8,PB1_8*%
%TO.N,Net-(U1-PB1)*%
X88950000Y-77750000D03*
%TO.P,U1,9,PB0_9*%
%TO.N,Net-(U1-PB0)*%
X88950000Y-76480000D03*
%TO.P,U1,10,~{RESET}/PA0_10*%
%TO.N,Net-(J1-Pin_2)*%
X88950000Y-75210000D03*
%TO.P,U1,11,PA1_11*%
%TO.N,Net-(U1-PA1)*%
X88950000Y-73940000D03*
%TO.P,U1,12,PA2_12*%
%TO.N,Net-(U1-PA2)*%
X88950000Y-72670000D03*
%TO.P,U1,13,PA3_13*%
%TO.N,Net-(U1-PA3)*%
X88950000Y-71400000D03*
%TO.P,U1,14,GND_14*%
%TO.N,Net-(BT1--)*%
X88950000Y-70130000D03*
%TD*%
D17*
%TO.P,4,1,K_1*%
%TO.N,Net-(BT1--)*%
X58325000Y-96400000D03*
%TO.P,4,2,A_2*%
%TO.N,Net-(D4-A)*%
X60075000Y-96400000D03*
%TD*%
%TO.P,1,1,K_1*%
%TO.N,Net-(BT1--)*%
X45725000Y-96316800D03*
%TO.P,1,2,A_2*%
%TO.N,Net-(D1-A)*%
X47475000Y-96316800D03*
%TD*%
%TO.P,9,1,K_1*%
%TO.N,Net-(BT1--)*%
X78400000Y-96400000D03*
%TO.P,9,2,A_2*%
%TO.N,Net-(D9-A)*%
X80150000Y-96400000D03*
%TD*%
%TO.P,3,1,K_1*%
%TO.N,Net-(BT1--)*%
X54000000Y-96200000D03*
%TO.P,3,2,A_2*%
%TO.N,Net-(D3-A)*%
X55750000Y-96200000D03*
%TD*%
D16*
%TO.P,R8,1*%
%TO.N,Net-(U1-PB2)*%
X75213000Y-92201600D03*
%TO.P,R8,2*%
%TO.N,Net-(D8-A)*%
X75213000Y-92701600D03*
%TD*%
D17*
%TO.P,6,1,K_1*%
%TO.N,Net-(BT1--)*%
X66525000Y-96400000D03*
%TO.P,6,2,A_2*%
%TO.N,Net-(D6-A)*%
X68275000Y-96400000D03*
%TD*%
D16*
%TO.P,R1,1*%
%TO.N,Net-(U1-PA2)*%
X46863000Y-92201600D03*
%TO.P,R1,2*%
%TO.N,Net-(D1-A)*%
X46863000Y-92701600D03*
%TD*%
D19*
%TO.P,Press here,1,1_1*%
%TO.N,Net-(U1-PA1)*%
X83350000Y-82150000D03*
X89850000Y-82150000D03*
%TO.P,Press here,2,2_2*%
%TO.N,Net-(BT1--)*%
X83350000Y-86650000D03*
X89850000Y-86650000D03*
%TD*%
D16*
%TO.P,R10,1*%
%TO.N,Net-(U1-PB0)*%
X83313000Y-92201600D03*
%TO.P,R10,2*%
%TO.N,Net-(D10-A)*%
X83313000Y-92701600D03*
%TD*%
D17*
%TO.P,5,1,K_1*%
%TO.N,Net-(BT1--)*%
X62525000Y-96400000D03*
%TO.P,5,2,A_2*%
%TO.N,Net-(D5-A)*%
X64275000Y-96400000D03*
%TD*%
D16*
%TO.P,R7,1*%
%TO.N,Net-(U1-PB3)*%
X71163000Y-92201600D03*
%TO.P,R7,2*%
%TO.N,Net-(D7-A)*%
X71163000Y-92701600D03*
%TD*%
D20*
%TO.N,Net-(BT1--)*%
X88950000Y-70130000D03*
X89140000Y-66510000D03*
%TO.N,Net-(BT1-+)*%
X84000000Y-70130000D03*
%TD*%
%TO.N,Net-(BT1--)*%
D21*
X88950000Y-70130000D02*
X89140000Y-69940000D01*
X83350000Y-86650000D02*
X89850000Y-86650000D01*
X89140000Y-69940000D02*
X89140000Y-66510000D01*
%TO.N,Net-(J1-Pin_2)*%
X86600000Y-63200000D02*
X86600000Y-73834999D01*
X87975001Y-75210000D02*
X88950000Y-75210000D01*
X86600000Y-73834999D02*
X87975001Y-75210000D01*
%TO.N,Net-(BT1-+)*%
X84000000Y-70130000D02*
X84000000Y-66570000D01*
X84000000Y-66570000D02*
X84060000Y-66510000D01*
%TO.N,Net-(U1-PA7)*%
X67113000Y-81887000D02*
X73790000Y-75210000D01*
X73790000Y-75210000D02*
X84000000Y-75210000D01*
X67113000Y-92201600D02*
X67113000Y-81887000D01*
%TO.N,Net-(U1-PA4)*%
X54963000Y-81437000D02*
X65000000Y-71400000D01*
X65000000Y-71400000D02*
X84000000Y-71400000D01*
X54963000Y-92201600D02*
X54963000Y-81437000D01*
%TO.N,Net-(U1-PA3)*%
X50913000Y-92201600D02*
X50913000Y-89913000D01*
X50913000Y-89913000D02*
X50000000Y-89000000D01*
X41000000Y-98400000D02*
X42200000Y-99600000D01*
X43000000Y-89000000D02*
X41000000Y-91000000D01*
X89400000Y-99600000D02*
X93000000Y-96000000D01*
X42200000Y-99600000D02*
X89400000Y-99600000D01*
X50000000Y-89000000D02*
X43000000Y-89000000D01*
X93000000Y-72400000D02*
X92000000Y-71400000D01*
X93000000Y-96000000D02*
X93000000Y-72400000D01*
X41000000Y-91000000D02*
X41000000Y-98400000D01*
X92000000Y-71400000D02*
X88950000Y-71400000D01*
%TO.N,Net-(U1-PB1)*%
X81234314Y-79200000D02*
X79263000Y-81171314D01*
X79263000Y-81171314D02*
X79263000Y-92201600D01*
X88950000Y-77750000D02*
X87500000Y-79200000D01*
X87500000Y-79200000D02*
X81234314Y-79200000D01*
%TO.N,Net-(U1-PA6)*%
X63063000Y-81737000D02*
X70860000Y-73940000D01*
X63063000Y-92201600D02*
X63063000Y-81737000D01*
X70860000Y-73940000D02*
X84000000Y-73940000D01*
%TO.N,Net-(U1-PA5)*%
X59013000Y-81587000D02*
X67930000Y-72670000D01*
X59013000Y-92201600D02*
X59013000Y-81587000D01*
X67930000Y-72670000D02*
X84000000Y-72670000D01*
%TO.N,Net-(U1-PB3)*%
X71163000Y-81637000D02*
X76320000Y-76480000D01*
X76320000Y-76480000D02*
X84000000Y-76480000D01*
X71163000Y-92201600D02*
X71163000Y-81637000D01*
%TO.N,Net-(U1-PB2)*%
X75200000Y-81600000D02*
X79050000Y-77750000D01*
X75200000Y-92188600D02*
X75200000Y-81600000D01*
X75213000Y-92201600D02*
X75200000Y-92188600D01*
X79050000Y-77750000D02*
X84000000Y-77750000D01*
%TO.N,Net-(U1-PB0)*%
X89924999Y-76480000D02*
X88950000Y-76480000D01*
X81000000Y-80000000D02*
X81400000Y-79600000D01*
X81400000Y-79600000D02*
X90400000Y-79600000D01*
X81000000Y-89888600D02*
X81000000Y-80000000D01*
X83313000Y-92201600D02*
X81000000Y-89888600D01*
X90400000Y-79600000D02*
X90600000Y-79400000D01*
X90600000Y-77155001D02*
X89924999Y-76480000D01*
X90600000Y-79400000D02*
X90600000Y-77155001D01*
%TO.N,Net-(U1-PA1)*%
X83350000Y-82150000D02*
X89850000Y-82150000D01*
X91000000Y-81000000D02*
X89850000Y-82150000D01*
X88950000Y-73940000D02*
X89924999Y-73940000D01*
X89924999Y-73940000D02*
X91000000Y-75015001D01*
X91000000Y-75015001D02*
X91000000Y-81000000D01*
%TO.N,Net-(U1-PA2)*%
X91800000Y-95400000D02*
X88800000Y-98400000D01*
X43000000Y-98400000D02*
X42400000Y-97800000D01*
X42400000Y-97800000D02*
X42400000Y-91200000D01*
X91800000Y-73400000D02*
X91800000Y-95400000D01*
X42400000Y-91200000D02*
X43600000Y-90000000D01*
X88950000Y-72670000D02*
X91070000Y-72670000D01*
X91070000Y-72670000D02*
X91800000Y-73400000D01*
X46000000Y-90000000D02*
X46863000Y-90863000D01*
X46863000Y-90863000D02*
X46863000Y-92201600D01*
X43600000Y-90000000D02*
X46000000Y-90000000D01*
X88800000Y-98400000D02*
X43000000Y-98400000D01*
%TD*%
M02*
